<mxfile host="app.diagrams.net" agent="Mozilla/5.0 (Windows NT 10.0; Win64; x64) AppleWebKit/537.36 (KHTML, like Gecko) Chrome/135.0.0.0 Safari/537.36" version="26.1.1">
  <diagram name="Страница — 1" id="xNjd8PBtwJbVvYitKhwB">
    <mxGraphModel dx="989" dy="509" grid="1" gridSize="10" guides="1" tooltips="1" connect="1" arrows="1" fold="1" page="1" pageScale="1" pageWidth="827" pageHeight="1169" math="0" shadow="0">
      <root>
        <mxCell id="0" />
        <mxCell id="1" parent="0" />
        <mxCell id="kTl1lCcldjxwTP6Ijo7r-50" value="" style="rounded=0;whiteSpace=wrap;html=1;strokeColor=none;" vertex="1" parent="1">
          <mxGeometry x="70" y="80" width="720" height="450" as="geometry" />
        </mxCell>
        <mxCell id="kTl1lCcldjxwTP6Ijo7r-6" style="edgeStyle=orthogonalEdgeStyle;rounded=0;orthogonalLoop=1;jettySize=auto;html=1;entryX=0;entryY=0.25;entryDx=0;entryDy=0;" edge="1" parent="1" source="kTl1lCcldjxwTP6Ijo7r-1" target="kTl1lCcldjxwTP6Ijo7r-2">
          <mxGeometry relative="1" as="geometry" />
        </mxCell>
        <mxCell id="kTl1lCcldjxwTP6Ijo7r-9" value="Подтверждённый заказ&lt;div&gt;с параметрами&lt;/div&gt;" style="edgeLabel;html=1;align=center;verticalAlign=middle;resizable=0;points=[];rotation=-90;" vertex="1" connectable="0" parent="kTl1lCcldjxwTP6Ijo7r-6">
          <mxGeometry x="-0.7261" relative="1" as="geometry">
            <mxPoint x="7" as="offset" />
          </mxGeometry>
        </mxCell>
        <mxCell id="kTl1lCcldjxwTP6Ijo7r-1" value="Принятие заказа" style="rounded=0;whiteSpace=wrap;html=1;" vertex="1" parent="1">
          <mxGeometry x="160" y="220" width="120" height="60" as="geometry" />
        </mxCell>
        <mxCell id="kTl1lCcldjxwTP6Ijo7r-5" style="edgeStyle=orthogonalEdgeStyle;rounded=0;orthogonalLoop=1;jettySize=auto;html=1;entryX=0;entryY=0.25;entryDx=0;entryDy=0;" edge="1" parent="1" source="kTl1lCcldjxwTP6Ijo7r-2" target="kTl1lCcldjxwTP6Ijo7r-4">
          <mxGeometry relative="1" as="geometry" />
        </mxCell>
        <mxCell id="kTl1lCcldjxwTP6Ijo7r-10" value="Подготовленные&lt;div&gt;ингредиенты&lt;/div&gt;" style="edgeLabel;html=1;align=center;verticalAlign=middle;resizable=0;points=[];" vertex="1" connectable="0" parent="kTl1lCcldjxwTP6Ijo7r-5">
          <mxGeometry x="-0.7327" relative="1" as="geometry">
            <mxPoint x="30" y="-20" as="offset" />
          </mxGeometry>
        </mxCell>
        <mxCell id="kTl1lCcldjxwTP6Ijo7r-2" value="Подготовка ингредиентов" style="rounded=0;whiteSpace=wrap;html=1;" vertex="1" parent="1">
          <mxGeometry x="380" y="300" width="120" height="60" as="geometry" />
        </mxCell>
        <mxCell id="kTl1lCcldjxwTP6Ijo7r-11" style="edgeStyle=orthogonalEdgeStyle;rounded=0;orthogonalLoop=1;jettySize=auto;html=1;" edge="1" parent="1" source="kTl1lCcldjxwTP6Ijo7r-4">
          <mxGeometry relative="1" as="geometry">
            <mxPoint x="780" y="410" as="targetPoint" />
          </mxGeometry>
        </mxCell>
        <mxCell id="kTl1lCcldjxwTP6Ijo7r-12" value="Готовый&lt;div&gt;напиток&lt;/div&gt;" style="edgeLabel;html=1;align=center;verticalAlign=middle;resizable=0;points=[];" vertex="1" connectable="0" parent="kTl1lCcldjxwTP6Ijo7r-11">
          <mxGeometry x="-0.0131" y="1" relative="1" as="geometry">
            <mxPoint x="-1" y="-20" as="offset" />
          </mxGeometry>
        </mxCell>
        <mxCell id="kTl1lCcldjxwTP6Ijo7r-4" value="Приготовление и выдача кофе" style="rounded=0;whiteSpace=wrap;html=1;" vertex="1" parent="1">
          <mxGeometry x="600" y="380" width="120" height="60" as="geometry" />
        </mxCell>
        <mxCell id="kTl1lCcldjxwTP6Ijo7r-7" value="&lt;font style=&quot;font-size: 18px;&quot;&gt;Автоматизация заказа кофе&lt;/font&gt;" style="text;whiteSpace=wrap;html=1;" vertex="1" parent="1">
          <mxGeometry x="318.75" y="80" width="242.5" height="30" as="geometry" />
        </mxCell>
        <mxCell id="kTl1lCcldjxwTP6Ijo7r-15" value="" style="endArrow=classic;html=1;rounded=0;entryX=0.25;entryY=0;entryDx=0;entryDy=0;" edge="1" parent="1" target="kTl1lCcldjxwTP6Ijo7r-1">
          <mxGeometry width="50" height="50" relative="1" as="geometry">
            <mxPoint x="190" y="140" as="sourcePoint" />
            <mxPoint x="350" y="250" as="targetPoint" />
          </mxGeometry>
        </mxCell>
        <mxCell id="kTl1lCcldjxwTP6Ijo7r-19" value="Меню&lt;div&gt;рецептов&lt;/div&gt;" style="edgeLabel;html=1;align=center;verticalAlign=middle;resizable=0;points=[];rotation=-90;" vertex="1" connectable="0" parent="kTl1lCcldjxwTP6Ijo7r-15">
          <mxGeometry x="-0.6971" y="-2" relative="1" as="geometry">
            <mxPoint x="-18" y="28" as="offset" />
          </mxGeometry>
        </mxCell>
        <mxCell id="kTl1lCcldjxwTP6Ijo7r-16" value="" style="endArrow=classic;html=1;rounded=0;entryX=0.75;entryY=0;entryDx=0;entryDy=0;" edge="1" parent="1" target="kTl1lCcldjxwTP6Ijo7r-1">
          <mxGeometry width="50" height="50" relative="1" as="geometry">
            <mxPoint x="250" y="140" as="sourcePoint" />
            <mxPoint x="350" y="250" as="targetPoint" />
          </mxGeometry>
        </mxCell>
        <mxCell id="kTl1lCcldjxwTP6Ijo7r-18" value="Наличие&lt;div&gt;ингредиентов&lt;/div&gt;" style="edgeLabel;html=1;align=center;verticalAlign=middle;resizable=0;points=[];rotation=-90;" vertex="1" connectable="0" parent="kTl1lCcldjxwTP6Ijo7r-16">
          <mxGeometry x="-0.7988" relative="1" as="geometry">
            <mxPoint x="-20" y="32" as="offset" />
          </mxGeometry>
        </mxCell>
        <mxCell id="kTl1lCcldjxwTP6Ijo7r-21" value="" style="endArrow=classic;html=1;rounded=0;entryX=0.25;entryY=1;entryDx=0;entryDy=0;" edge="1" parent="1" target="kTl1lCcldjxwTP6Ijo7r-1">
          <mxGeometry width="50" height="50" relative="1" as="geometry">
            <mxPoint x="190" y="520" as="sourcePoint" />
            <mxPoint x="350" y="310" as="targetPoint" />
          </mxGeometry>
        </mxCell>
        <mxCell id="kTl1lCcldjxwTP6Ijo7r-22" value="Мобильное&lt;div&gt;приложение&lt;/div&gt;" style="edgeLabel;html=1;align=center;verticalAlign=middle;resizable=0;points=[];rotation=-90;" vertex="1" connectable="0" parent="kTl1lCcldjxwTP6Ijo7r-21">
          <mxGeometry x="-0.8171" y="1" relative="1" as="geometry">
            <mxPoint x="-19" y="-18" as="offset" />
          </mxGeometry>
        </mxCell>
        <mxCell id="kTl1lCcldjxwTP6Ijo7r-23" value="" style="endArrow=classic;html=1;rounded=0;entryX=0.25;entryY=1;entryDx=0;entryDy=0;" edge="1" parent="1">
          <mxGeometry width="50" height="50" relative="1" as="geometry">
            <mxPoint x="250" y="520" as="sourcePoint" />
            <mxPoint x="250" y="280" as="targetPoint" />
          </mxGeometry>
        </mxCell>
        <mxCell id="kTl1lCcldjxwTP6Ijo7r-24" value="Интерфейс&lt;div&gt;пользователя&lt;/div&gt;" style="edgeLabel;html=1;align=center;verticalAlign=middle;resizable=0;points=[];rotation=-90;" vertex="1" connectable="0" parent="kTl1lCcldjxwTP6Ijo7r-23">
          <mxGeometry x="-0.8171" y="1" relative="1" as="geometry">
            <mxPoint x="-19" y="-18" as="offset" />
          </mxGeometry>
        </mxCell>
        <mxCell id="kTl1lCcldjxwTP6Ijo7r-25" value="" style="endArrow=classic;html=1;rounded=0;entryX=0.25;entryY=1;entryDx=0;entryDy=0;" edge="1" parent="1">
          <mxGeometry width="50" height="50" relative="1" as="geometry">
            <mxPoint x="410" y="520" as="sourcePoint" />
            <mxPoint x="410" y="360" as="targetPoint" />
          </mxGeometry>
        </mxCell>
        <mxCell id="kTl1lCcldjxwTP6Ijo7r-26" value="Система&lt;div&gt;дозирования&lt;/div&gt;" style="edgeLabel;html=1;align=center;verticalAlign=middle;resizable=0;points=[];rotation=-90;" vertex="1" connectable="0" parent="kTl1lCcldjxwTP6Ijo7r-25">
          <mxGeometry x="-0.8171" y="1" relative="1" as="geometry">
            <mxPoint x="-19" y="-26" as="offset" />
          </mxGeometry>
        </mxCell>
        <mxCell id="kTl1lCcldjxwTP6Ijo7r-27" value="" style="endArrow=classic;html=1;rounded=0;entryX=0.25;entryY=1;entryDx=0;entryDy=0;" edge="1" parent="1">
          <mxGeometry width="50" height="50" relative="1" as="geometry">
            <mxPoint x="480" y="520" as="sourcePoint" />
            <mxPoint x="480" y="360" as="targetPoint" />
          </mxGeometry>
        </mxCell>
        <mxCell id="kTl1lCcldjxwTP6Ijo7r-34" value="Кофемолка" style="edgeLabel;html=1;align=center;verticalAlign=middle;resizable=0;points=[];rotation=-90;" vertex="1" connectable="0" parent="kTl1lCcldjxwTP6Ijo7r-27">
          <mxGeometry x="-0.8703" y="1" relative="1" as="geometry">
            <mxPoint x="-9" y="-30" as="offset" />
          </mxGeometry>
        </mxCell>
        <mxCell id="kTl1lCcldjxwTP6Ijo7r-29" value="" style="endArrow=classic;html=1;rounded=0;entryX=0.25;entryY=1;entryDx=0;entryDy=0;" edge="1" parent="1">
          <mxGeometry width="50" height="50" relative="1" as="geometry">
            <mxPoint x="630" y="520" as="sourcePoint" />
            <mxPoint x="630" y="440" as="targetPoint" />
          </mxGeometry>
        </mxCell>
        <mxCell id="kTl1lCcldjxwTP6Ijo7r-30" value="Кофемашина" style="edgeLabel;html=1;align=center;verticalAlign=middle;resizable=0;points=[];rotation=-90;" vertex="1" connectable="0" parent="kTl1lCcldjxwTP6Ijo7r-29">
          <mxGeometry x="-0.8171" y="1" relative="1" as="geometry">
            <mxPoint x="-9" y="-32" as="offset" />
          </mxGeometry>
        </mxCell>
        <mxCell id="kTl1lCcldjxwTP6Ijo7r-31" value="" style="endArrow=classic;html=1;rounded=0;entryX=0.25;entryY=1;entryDx=0;entryDy=0;" edge="1" parent="1">
          <mxGeometry width="50" height="50" relative="1" as="geometry">
            <mxPoint x="690" y="520" as="sourcePoint" />
            <mxPoint x="690" y="440" as="targetPoint" />
          </mxGeometry>
        </mxCell>
        <mxCell id="kTl1lCcldjxwTP6Ijo7r-32" value="Капучинатор" style="edgeLabel;html=1;align=center;verticalAlign=middle;resizable=0;points=[];rotation=-90;" vertex="1" connectable="0" parent="kTl1lCcldjxwTP6Ijo7r-31">
          <mxGeometry x="-0.8171" y="1" relative="1" as="geometry">
            <mxPoint x="-9" y="-32" as="offset" />
          </mxGeometry>
        </mxCell>
        <mxCell id="kTl1lCcldjxwTP6Ijo7r-35" value="" style="endArrow=classic;html=1;rounded=0;entryX=0.25;entryY=0;entryDx=0;entryDy=0;" edge="1" parent="1">
          <mxGeometry width="50" height="50" relative="1" as="geometry">
            <mxPoint x="414" y="140" as="sourcePoint" />
            <mxPoint x="414" y="300" as="targetPoint" />
          </mxGeometry>
        </mxCell>
        <mxCell id="kTl1lCcldjxwTP6Ijo7r-36" value="Настройки&lt;div&gt;кофемашины&lt;/div&gt;" style="edgeLabel;html=1;align=center;verticalAlign=middle;resizable=0;points=[];rotation=-90;" vertex="1" connectable="0" parent="kTl1lCcldjxwTP6Ijo7r-35">
          <mxGeometry x="-0.6971" y="-2" relative="1" as="geometry">
            <mxPoint x="-18" y="16" as="offset" />
          </mxGeometry>
        </mxCell>
        <mxCell id="kTl1lCcldjxwTP6Ijo7r-37" value="" style="endArrow=classic;html=1;rounded=0;entryX=0.25;entryY=0;entryDx=0;entryDy=0;" edge="1" parent="1">
          <mxGeometry width="50" height="50" relative="1" as="geometry">
            <mxPoint x="480" y="140" as="sourcePoint" />
            <mxPoint x="480" y="300" as="targetPoint" />
          </mxGeometry>
        </mxCell>
        <mxCell id="kTl1lCcldjxwTP6Ijo7r-38" value="Рецепты" style="edgeLabel;html=1;align=center;verticalAlign=middle;resizable=0;points=[];rotation=-90;" vertex="1" connectable="0" parent="kTl1lCcldjxwTP6Ijo7r-37">
          <mxGeometry x="-0.6971" y="-2" relative="1" as="geometry">
            <mxPoint x="-8" y="6" as="offset" />
          </mxGeometry>
        </mxCell>
        <mxCell id="kTl1lCcldjxwTP6Ijo7r-39" value="" style="endArrow=classic;html=1;rounded=0;entryX=0.25;entryY=0;entryDx=0;entryDy=0;" edge="1" parent="1">
          <mxGeometry width="50" height="50" relative="1" as="geometry">
            <mxPoint x="630" y="140" as="sourcePoint" />
            <mxPoint x="630" y="380" as="targetPoint" />
          </mxGeometry>
        </mxCell>
        <mxCell id="kTl1lCcldjxwTP6Ijo7r-40" value="Температура" style="edgeLabel;html=1;align=center;verticalAlign=middle;resizable=0;points=[];rotation=-90;" vertex="1" connectable="0" parent="kTl1lCcldjxwTP6Ijo7r-39">
          <mxGeometry x="-0.6971" y="-2" relative="1" as="geometry">
            <mxPoint x="-8" y="6" as="offset" />
          </mxGeometry>
        </mxCell>
        <mxCell id="kTl1lCcldjxwTP6Ijo7r-41" value="" style="endArrow=classic;html=1;rounded=0;entryX=0.25;entryY=0;entryDx=0;entryDy=0;" edge="1" parent="1">
          <mxGeometry width="50" height="50" relative="1" as="geometry">
            <mxPoint x="690" y="140" as="sourcePoint" />
            <mxPoint x="690" y="380" as="targetPoint" />
          </mxGeometry>
        </mxCell>
        <mxCell id="kTl1lCcldjxwTP6Ijo7r-42" value="Объём" style="edgeLabel;html=1;align=center;verticalAlign=middle;resizable=0;points=[];rotation=-90;" vertex="1" connectable="0" parent="kTl1lCcldjxwTP6Ijo7r-41">
          <mxGeometry x="-0.6971" y="-2" relative="1" as="geometry">
            <mxPoint x="-8" y="6" as="offset" />
          </mxGeometry>
        </mxCell>
        <mxCell id="kTl1lCcldjxwTP6Ijo7r-43" value="" style="endArrow=classic;html=1;rounded=0;entryX=0;entryY=0.25;entryDx=0;entryDy=0;" edge="1" parent="1" target="kTl1lCcldjxwTP6Ijo7r-1">
          <mxGeometry width="50" height="50" relative="1" as="geometry">
            <mxPoint x="80" y="235" as="sourcePoint" />
            <mxPoint x="540" y="270" as="targetPoint" />
          </mxGeometry>
        </mxCell>
        <mxCell id="kTl1lCcldjxwTP6Ijo7r-44" value="Тип напитка" style="edgeLabel;html=1;align=center;verticalAlign=middle;resizable=0;points=[];" vertex="1" connectable="0" parent="kTl1lCcldjxwTP6Ijo7r-43">
          <mxGeometry x="-0.0181" y="1" relative="1" as="geometry">
            <mxPoint y="-14" as="offset" />
          </mxGeometry>
        </mxCell>
        <mxCell id="kTl1lCcldjxwTP6Ijo7r-46" value="" style="endArrow=classic;html=1;rounded=0;entryX=0;entryY=0.25;entryDx=0;entryDy=0;" edge="1" parent="1">
          <mxGeometry width="50" height="50" relative="1" as="geometry">
            <mxPoint x="80" y="260" as="sourcePoint" />
            <mxPoint x="160" y="260" as="targetPoint" />
          </mxGeometry>
        </mxCell>
        <mxCell id="kTl1lCcldjxwTP6Ijo7r-47" value="Объём" style="edgeLabel;html=1;align=center;verticalAlign=middle;resizable=0;points=[];" vertex="1" connectable="0" parent="kTl1lCcldjxwTP6Ijo7r-46">
          <mxGeometry x="-0.0181" y="1" relative="1" as="geometry">
            <mxPoint y="-9" as="offset" />
          </mxGeometry>
        </mxCell>
        <mxCell id="kTl1lCcldjxwTP6Ijo7r-48" value="" style="endArrow=classic;html=1;rounded=0;entryX=0;entryY=0.75;entryDx=0;entryDy=0;" edge="1" parent="1" target="kTl1lCcldjxwTP6Ijo7r-4">
          <mxGeometry width="50" height="50" relative="1" as="geometry">
            <mxPoint x="80" y="425" as="sourcePoint" />
            <mxPoint x="540" y="360" as="targetPoint" />
          </mxGeometry>
        </mxCell>
        <mxCell id="kTl1lCcldjxwTP6Ijo7r-49" value="Время&lt;div&gt;заваривания&lt;/div&gt;" style="edgeLabel;html=1;align=center;verticalAlign=middle;resizable=0;points=[];" vertex="1" connectable="0" parent="kTl1lCcldjxwTP6Ijo7r-48">
          <mxGeometry x="-0.9285" y="-1" relative="1" as="geometry">
            <mxPoint x="21" y="-19" as="offset" />
          </mxGeometry>
        </mxCell>
      </root>
    </mxGraphModel>
  </diagram>
</mxfile>
